OpenSim_Sub07_CSBaseline_RCS.mot
version=1
nRows=74
nColumns=11
inDegrees=no
endheader
time	Top_Thigh	Med_Thigh	Bot_Thigh	Top_Shank	2nd_Top_Shank	2nd_Bot_Shank	Bot_Shank	BNOx	BNOy	BNOZ
19.47000000	2012.32869011	1831.94800625	1369.91782029	1133.38766030	1291.00564285	1136.39447409	1135.12770287	13.36116591	-75.57782628	-45.82867059
19.48000000	2007.01414485	1831.90184463	1371.95684267	1132.50791972	1290.28070322	1136.59821947	1135.20201986	14.06780369	-75.57317414	-7.49236462
19.49000000	2001.90193114	1832.00216164	1374.57338729	1131.44984117	1289.77623386	1136.68917194	1135.15624784	14.66760712	-75.54351555	30.75297624
19.50000000	1997.23338372	1832.24466764	1377.91767062	1130.21894327	1289.44546095	1136.63410923	1134.96568868	15.21158502	-75.48337464	67.37487556
19.51000000	1993.24983734	1832.62507301	1382.13990912	1128.82074464	1289.24161064	1136.39980907	1134.60564425	15.75074621	-75.38727551	100.84085694
19.52000000	1990.19262675	1833.13908812	1387.39031925	1127.26076389	1289.11790912	1135.95304918	1134.05141642	16.33609950	-75.24974227	129.61844394
19.53000000	1988.30308671	1833.78242332	1393.81911749	1125.54451963	1289.02758254	1135.26060729	1133.27830707	17.01865373	-75.06529906	152.17516016
19.54000000	1987.79690607	1834.54943077	1401.54794274	1123.67900315	1288.92212764	1134.29252010	1132.26226439	17.84545394	-74.82878240	167.14047383
19.55000000	1988.62501528	1835.42044082	1410.40341036	1121.68640896	1288.73518687	1133.05246876	1130.98590896	18.82262475	-74.53825428	174.81570753
19.56000000	1990.58215158	1836.36751176	1420.03808759	1119.59790067	1288.38986970	1131.56398282	1129.43579772	19.93214994	-74.19367949	176.48848819
19.57000000	1993.46103341	1837.36259493	1430.10229215	1117.44475780	1287.80914941	1129.85084839	1127.59853846	21.15570124	-73.79504744	173.45919057
19.58000000	1997.05437923	1838.37764169	1440.24634176	1115.25825990	1286.91599932	1127.93685155	1125.46073899	22.47495042	-73.34234751	167.02818941
19.59000000	2001.15490748	1839.38460339	1450.12055413	1113.06968649	1285.63339273	1125.84577840	1123.00900712	23.87156921	-72.83556911	158.49585949
19.60000000	2005.55533660	1840.35543138	1459.37524698	1110.91031711	1283.88430294	1123.60141503	1120.22995066	25.32722936	-72.27470162	149.16257556
19.61000000	2010.04838506	1841.26207703	1467.66073802	1108.81143128	1281.59170325	1121.22754755	1117.11017742	26.82360264	-71.65973445	140.32871238
19.62000000	2014.42677641	1842.07652287	1474.62752907	1106.80427488	1278.67857741	1118.74792942	1113.63631069	28.34237682	-70.99065216	133.29428236
19.63000000	2018.49001036	1842.81213067	1480.17042954	1104.87544320	1275.08176965	1116.14302818	1109.81554021	29.88652149	-70.26102713	128.87845366
19.64000000	2022.05772112	1843.60521503	1484.91017560	1102.87885828	1270.77930874	1113.26469307	1105.71616601	31.52224227	-69.44537883	126.47163128
19.65000000	2024.95326542	1844.61482258	1489.60171614	1100.64391294	1265.75683780	1109.94099378	1101.41778647	33.32743612	-68.51470416	125.20006384
19.66000000	2027.00000000	1846.00000000	1495.00000000	1098.00000000	1260.00000000	1106.00000000	1097.00000000	35.38000000	-67.44000000	124.19000000
19.67000000	2028.11382158	1847.89501360	1501.67594697	1094.87094001	1253.59251412	1101.36232477	1092.54257907	37.73061707	-66.20228875	122.73666603
19.68000000	2028.58078674	1850.33500834	1509.46436045	1091.55826446	1247.01040155	1096.31875446	1088.12599254	40.32111529	-64.82269494	120.81119871
19.69000000	2028.77949204	1853.33034886	1518.01601477	1088.45793255	1240.82775934	1091.25261880	1083.83088333	43.06610877	-63.33236858	118.55371241
19.70000000	2029.08853403	1856.89139977	1526.98168423	1085.96590349	1235.61868452	1086.54724748	1079.73789439	45.88021166	-61.76245972	116.10432153
19.71000000	2029.88650927	1861.02852572	1536.01214317	1084.47813649	1231.95727414	1082.58597023	1075.92766865	48.67803809	-60.14411840	113.60314045
19.72000000	2031.55201430	1865.75209132	1544.75816590	1084.39059077	1230.41762523	1079.75211675	1072.48084905	51.37420220	-58.50849465	111.19028358
19.73000000	2034.46364570	1871.07246120	1552.87052674	1086.09922554	1231.57383484	1078.42901677	1069.47807852	53.88331812	-56.88673850	109.00586530
19.74000000	2039.00000000	1877.00000000	1560.00000000	1090.00000000	1236.00000000	1079.00000000	1067.00000000	56.12000000	-55.31000000	107.19000000
19.75000000	2045.39955522	1883.50495304	1565.88512124	1096.37164728	1244.03896305	1081.70855331	1065.12204088	58.02200433	-53.80719574	105.84415319
19.76000000	2053.34031516	1890.39708844	1570.61547090	1105.02399613	1255.10854749	1086.23879222	1063.89876638	59.61965708	-52.39830861	104.91519484
19.77000000	2062.36016510	1897.44605504	1574.36839066	1115.64964921	1268.39532210	1092.13498943	1063.37952614	60.96642657	-51.10108804	104.31134606
19.78000000	2071.99699028	1904.42150167	1577.32122221	1127.94120918	1283.08585568	1098.94141761	1063.61366983	62.11578114	-49.93328349	103.94082795
19.79000000	2081.78867598	1911.09307715	1579.65130723	1141.59127871	1298.36671701	1106.20234945	1064.65054711	63.12118911	-48.91264439	103.71186159
19.80000000	2091.27310745	1917.23043032	1581.53598739	1156.29246046	1313.42447488	1113.46205764	1066.53950764	64.03611882	-48.05692021	103.53266809
19.81000000	2099.98816996	1922.60321000	1583.15260438	1171.73735708	1327.44569809	1120.26481486	1069.32990108	64.91403859	-47.38386037	103.31146854
19.82000000	2107.47174876	1926.98106502	1584.67849987	1187.61857124	1339.61695543	1126.15489380	1073.07107710	65.80841676	-46.91121433	102.95648404
19.83000000	2113.26172912	1930.13364422	1586.29101554	1203.62870560	1349.12481568	1130.67656715	1077.81238535	66.77272165	-46.65673153	102.37593569
19.84000000	2116.91957703	1931.84188813	1588.13517832	1219.45574326	1355.22420918	1133.41154536	1083.58288919	67.84164111	-46.63806942	101.49695110
19.85000000	2118.35959599	1932.05569488	1589.87249048	1234.71854481	1358.19295771	1134.50171895	1090.10810883	68.76885117	-46.87150878	100.52955530
19.86000000	2117.76770453	1930.85502643	1590.79223609	1248.98276028	1359.09630688	1134.52020615	1096.87989631	69.09170446	-47.37227066	99.90154833
19.87000000	2115.33680806	1928.32319046	1590.17412450	1261.81267088	1359.01975756	1134.05121786	1103.38409294	68.34198899	-48.15554883	100.04633215
19.88000000	2111.26859720	1924.55450431	1587.42177918	1272.83410660	1358.91260742	1133.60589590	1109.17509273	66.16012714	-49.22868256	101.30574607
19.89000000	2105.81227978	1919.70283414	1582.60904804	1282.00580094	1358.98746086	1133.30016750	1114.17807596	62.77412052	-50.55652784	103.52638717
19.90000000	2099.23305534	1913.94208700	1576.03534013	1289.39852470	1359.20899134	1133.11695208	1118.44300953	58.60971805	-52.08964309	106.38818086
19.91000000	2091.79613550	1907.44618508	1568.00023453	1295.08313309	1359.54168544	1133.03906884	1122.01995436	54.09281766	-53.77857593	109.57092693
19.92000000	2083.76673186	1900.38905055	1558.80331027	1299.13048133	1359.95002977	1133.04933699	1124.95897134	49.64931729	-55.57387400	112.75442521
19.93000000	2075.41005602	1892.94460557	1548.74414641	1301.61142465	1360.39851093	1133.13057572	1127.31012141	45.70511488	-57.42608495	115.61847548
19.94000000	2066.99131958	1885.28677232	1538.12232201	1302.59681826	1360.85161550	1133.26560422	1129.12346547	42.68610837	-59.28575640	117.84287756
19.95000000	2058.77573416	1877.58947297	1527.23741612	1302.15751738	1361.27383010	1133.43724171	1130.44906445	41.01819569	-61.10343599	119.10743124
19.96000000	2051.02851135	1870.02662968	1516.38900778	1300.36437723	1361.62964132	1133.62830737	1131.33697925	41.12727477	-62.82967137	119.09193634
19.97000000	2044.01486277	1862.77216464	1505.87667606	1297.28825303	1361.88353575	1133.82162040	1131.83727080	43.43924357	-64.41501016	117.47619266
19.98000000	2038.00000000	1856.00000000	1496.00000000	1293.00000000	1362	1134	1132	48.38000000	-65.81000000	113.94000000
19.99000000	2033.18657189	1849.85013379	1486.99709826	1287.58379428	1361.95241804	1134.14951107	1131.87192267	56.25108674	-66.97612055	108.25573129
20	2029.52697619	1844.32686739	1478.86024786	1281.17709572	1361.74976333	1134.26920128	1131.48657416	66.85662536	-67.91857956	100.56605197
20.01000000	2026.91104789	1839.40057803	1471.52026546	1273.93068508	1361.40990672	1134.36136401	1130.87418472	79.87638216	-68.65351679	91.10620058
20.02000000	2025.22862197	1835.04164294	1464.90796768	1265.99534314	1360.95071904	1134.42829262	1130.06498459	94.99012344	-69.19707199	80.11141569
20.03000000	2024.36953341	1831.22043936	1458.95417116	1257.52185067	1360.39007113	1134.47228049	1129.08920404	111.87761550	-69.56538493	67.81693585
20.04000000	2024.22361720	1827.90734452	1453.58969254	1248.66098843	1359.74583384	1134.49562100	1127.97707329	130.21862464	-69.77459539	54.45799961
20.05000000	2024.68070832	1825.07273565	1448.74534844	1239.56353720	1359.03587801	1134.50060751	1126.75882261	149.69291716	-69.84084310	40.26984553
20.06000000	2025.63064176	1822.68698997	1444.35195551	1230.38027774	1358.27807446	1134.48953340	1125.46468224	169.98025936	-69.78026786	25.48771216
20.07000000	2026.96325250	1820.72048472	1440.34033037	1221.26199082	1357.49029406	1134.46469203	1124.12488242	190.76041755	-69.60900940	10.34683807
20.08000000	2028.56837552	1819.14359714	1436.64128967	1212.35945722	1356.69040762	1134.42837680	1122.76965341	211.71315801	-69.34320751	-4.91753820
20.09000000	2030.33584580	1817.92670445	1433.18565005	1203.82345770	1355.89628600	1134.38288105	1121.42922545	232.51824707	-68.99900193	-20.07017809
20.10000000	2032.15549835	1817.04018388	1429.90422813	1195.80477303	1355.12580003	1134.33049818	1120.13382879	252.85545100	-68.59253244	-34.87584304
20.11000000	2033.91716812	1816.45441266	1426.72784055	1188.45418398	1354.39682056	1134.27352154	1118.91369367	272.40453612	-68.13993880	-49.09929450
20.12000000	2035.51069012	1816.13976803	1423.58730394	1181.92247133	1353.72721842	1134.21424452	1117.79905036	290.84526873	-67.65736076	-62.50529392
20.13000000	2036.82589932	1816.06662722	1420.41343495	1176.36041583	1353.13486446	1134.15496048	1116.82012908	307.85741512	-67.16093810	-74.85860273
20.14000000	2037.75263072	1816.20536746	1417.13705021	1171.91879826	1352.63762950	1134.09796280	1116.00716010	323.12074159	-66.66681058	-85.92398238
20.15000000	2038.18071928	1816.52636597	1413.68896634	1168.74839940	1352.25338441	1134.04554485	1115.39037366	336.31501445	-66.19111796	-95.46619433
20.16000000	2038.00000000	1817.00000000	1410.00000000	1167.00000000	1352	1134	1115	347.12000000	-65.75000000	-103.25000000
20.17000000	2037.14885564	1817.60510609	1406.02517767	1166.76110980	1351.89024357	1133.96312513	1114.85367641	355.31544097	-65.35772455	-109.11542020
20.18000000	2035.75986007	1818.35435810	1401.81636527	1167.86615436	1351.91646814	1133.93473115	1114.91866830	361.08098581	-65.02107179	-113.20351314
20.19000000	2034.01413494	1819.26888918	1397.44963861	1170.08628820	1352.06592320	1133.91413245	1115.14964810	364.69625941	-64.74494998	-115.73059636
20.20000000	2032.09280190	1820.36983253	1393.00107346	1173.19266584	1352.32585821	1133.90064345	1115.50128826	366.44088667	-64.53426738	-116.91298744
